<svg xmlns="http://www.w3.org/2000/svg" width="117" height="26" viewBox="0 0 117 26" fill="none"><path d="M81.1707 14.1978C81.4885 11.9787 83.0739 9.90003 85.8214 9.90003C88.569 9.90003 90.1192 11.9085 90.2947 14.1978H81.1707ZM35.8995 14.1978C36.2174 11.9787 37.8027 9.90003 40.5502 9.90003C43.2978 9.90003 44.848 11.9085 45.0235 14.1978H35.8995ZM104.986 25.6481C109.284 25.6481 112.279 23.3588 113.123 19.0591H109.179C108.755 21.0676 107.558 22.1946 104.986 22.1946C101.605 22.1946 100.3 19.2697 100.3 16.2414C100.3 10.7463 103.188 9.90003 105.162 9.90003C107.135 9.90003 108.72 11.1324 109.036 13.3885H113.123C112.735 8.9153 109.141 6.44858 105.126 6.44858C99.138 6.44858 96.1428 10.7463 96.1428 16.2433C96.1428 21.7403 99.2784 25.65 104.986 25.65M85.9267 25.6481C89.8716 25.6481 93.325 23.429 94.1713 19.5895H90.2265C89.6278 21.3854 88.2531 22.1966 85.9287 22.1966C82.6878 22.1966 81.2428 19.6597 81.1726 17.0877H94.419C94.8773 11.4854 91.6714 6.44858 85.8585 6.44858C80.4336 6.44858 77.0153 10.8867 77.0153 16.0659C77.0153 21.7032 80.186 25.6481 85.9287 25.6481M40.6555 25.6481C44.6004 25.6481 48.0538 23.429 48.9002 19.5895H44.9553C44.3566 21.3854 42.9819 22.1966 40.6575 22.1966C37.4166 22.1966 35.9716 19.6597 35.9014 17.0877H49.1478C49.606 11.4854 46.4002 6.44858 40.5873 6.44858C35.1624 6.44858 31.744 10.8867 31.744 16.0659C31.744 21.7032 34.9147 25.6481 40.6575 25.6481M113.597 2.60322V1.72183H114.514C114.759 1.72183 115.007 1.79203 115.007 2.18007C115.007 2.46282 114.796 2.60322 114.514 2.60322H113.597ZM73.632 25.3653C74.4062 25.3653 75.3577 25.26 76.0285 25.1547V22.0542C75.6756 22.1244 74.9015 22.1946 74.3379 22.1946C72.928 22.1946 72.3996 21.6311 72.3996 20.1511V9.93513H76.0285V6.93997H72.3996V1.48003H68.5249V6.93997H65.7774V9.93513H68.5249V20.1511C68.5249 23.5323 69.8997 25.3653 73.6339 25.3653M113.106 4.29385H113.599V3.02636H114.338C114.796 3.02636 115.007 3.23696 115.007 3.62501C115.007 3.90775 115.007 4.11835 115.042 4.29385H115.536C115.465 3.976 115.465 3.73031 115.465 3.44756C115.465 3.02441 115.22 2.88402 115.042 2.84892C115.183 2.81382 115.5 2.63832 115.5 2.10988C115.5 1.65163 115.218 1.29868 114.514 1.29868H113.104V4.29385H113.106ZM114.217 5.07384C112.878 5.07384 111.928 4.12225 111.928 2.78457C111.928 1.44688 112.88 0.495294 114.217 0.495294C115.555 0.495294 116.507 1.44688 116.507 2.78457C116.507 4.12225 115.555 5.07384 114.217 5.07384ZM114.217 5.56718C115.838 5.56718 117 4.405 117 2.78457C117 1.16414 115.838 0.00194998 114.217 0.00194998C112.597 0.00194998 111.435 1.16414 111.435 2.78457C111.435 4.405 112.597 5.56718 114.217 5.56718ZM59.9274 25.2249H63.9795V0H59.9274V25.2249ZM51.9655 25.2249H55.9825V0H51.9655V25.2249ZM6.4467 25.1547H11.5206L16.2416 5.56718H16.3118L21.0327 25.1547H25.894L32.3408 0H28.0079L23.6379 19.414H23.5677L19.0944 0H13.531L9.0558 19.414H8.9856L4.6137 0H0L6.4467 25.1547Z" fill="#2DA55D"></path></svg>