<svg xmlns="http://www.w3.org/2000/svg" viewBox="0 0 468.29 367.4"><defs><style>.a{fill:#5d5d66;}.b{fill:#ebf0f3;}.c{fill:#414149;}.d{fill:#ce0e2d;}</style></defs><path class="a" d="M29.52,0h112a20.51,20.51,0,0,1,17.77,10.27l18.43,25.18a20.51,20.51,0,0,0,17.77,10.28h272.8V333.22A27.34,27.34,0,0,1,441,360.56H27.34A27.34,27.34,0,0,1,0,333.22V77.62A205.37,205.37,0,0,1,9.68,15.34h0A20.51,20.51,0,0,1,29.52,0Z"></path><rect class="b" x="42.61" y="41.03" width="359.96" height="152.06"></rect><path class="c" d="M447.79,13.67H334.93a20.49,20.49,0,0,0-18.65,12L297,67.92a20.49,20.49,0,0,1-18.65,12H0V340.06A27.34,27.34,0,0,0,27.34,367.4H441a27.34,27.34,0,0,0,27.34-27.34V34.18A20.5,20.5,0,0,0,447.79,13.67Z"></path><path class="d" d="M107.37,197.83h47.52l-52.72,9.59L91,226.2H200.81l-11.19-18H130.93l53.09-10-9.24-15.86h0a6.36,6.36,0,0,0-5-3.27l.06-.05h-52.1Z"></path><path class="d" d="M71.43,193.44,57.07,242.56l8.38,17.17,54.3-93H99L71.82,214.2l14.37-47.5H70.66A6.37,6.37,0,0,0,65.13,170l0,0L39.88,213l9.19,16.77Z"></path><path class="d" d="M51.46,300.86,29.09,262.94l32.76,37.52H83L30.68,207,20.31,225l27.55,49.52L13.52,236.17,5,251H5a6.22,6.22,0,0,0,0,6.36l.16.29.08.13,25,43.12Z"></path><path class="d" d="M107.78,334.81H62.64l51.11-11.19,10.79-18.38H19.92l10.37,18.38H87L36.28,334l7.87,14.42h0a6.34,6.34,0,0,0,5.49,3.16H98.18Z"></path><path class="d" d="M145.29,341.2l15.57-51.51-10.37-18.77L96.18,365.15h20.76l29.56-52.31-16,52.31h16.21a6.38,6.38,0,0,0,5.52-3.21h0l25.36-45.11-9.59-16.76Z"></path><path class="d" d="M215.41,278.52a6.26,6.26,0,0,0-.89-3.2h0l-.17-.29-.05-.1-25.49-44H167.67l22,38.33L153.29,231H133.71l55.53,94.64,10.37-18.36-28.75-48.73,35.53,37.54,8.14-14.34h0a6.36,6.36,0,0,0,.89-3.21"></path></svg>