<svg xmlns="http://www.w3.org/2000/svg" viewBox="0 0 131.33 29.46"><path d="M39.68,24.66h1.68a2.36,2.36,0,1,1,0,4.71H39.68Zm1.68,4.09a1.74,1.74,0,0,0,0-3.47h-1v3.47Z" style="fill:#cc122d"></path><path d="M47.34,24.58A2.44,2.44,0,1,1,45,27,2.31,2.31,0,0,1,47.34,24.58Zm0,.63A1.65,1.65,0,0,0,45.69,27,1.66,1.66,0,1,0,49,27,1.66,1.66,0,0,0,47.34,25.21Z" style="fill:#cc122d"></path><path d="M53.56,25.74l-1,3.63h-.75l-1.35-4.71h.79l1,3.78,1-3.78h.58l1,3.78,1-3.78h.79l-1.35,4.71h-.75Z" style="fill:#cc122d"></path><path d="M58.45,25.76v3.61h-.71V24.66h.73L61,28.19V24.66h.71v4.71h-.69Z" style="fill:#cc122d"></path><path d="M66.6,27.27H64v2.1h-.7V24.66H64v2H66.6v-2h.71v4.71H66.6Z" style="fill:#cc122d"></path><path d="M71,24.58A2.44,2.44,0,1,1,68.65,27,2.32,2.32,0,0,1,71,24.58Zm0,.63A1.65,1.65,0,0,0,69.38,27a1.65,1.65,0,1,0,3.29,0A1.66,1.66,0,0,0,71,25.21Z" style="fill:#cc122d"></path><path d="M74.75,24.66h.71v4.09H77.6v.62H74.75Z" style="fill:#cc122d"></path><path d="M78.88,24.66H82v.62H79.58v1.38H82v.62H79.58v1.47H82v.62H78.88Z" style="fill:#cc122d"></path><path d="M85.87,28.17a2,2,0,0,0,1.48.66c.76,0,1-.39,1-.73,0-.49-.54-.63-1.14-.79s-1.63-.42-1.63-1.38c0-.77.69-1.34,1.67-1.34a2.3,2.3,0,0,1,1.72.66l-.42.52a1.83,1.83,0,0,0-1.36-.55c-.52,0-.88.27-.88.66s.51.56,1.09.71c.77.2,1.67.45,1.67,1.45,0,.73-.51,1.42-1.78,1.42a2.41,2.41,0,0,1-1.86-.75Z" style="fill:#cc122d"></path><path d="M90.42,24.66h2a1.45,1.45,0,1,1,0,2.9H91.12v1.81h-.7Zm1.89.62H91.12v1.66h1.19a.83.83,0,1,0,0-1.66Z" style="fill:#cc122d"></path><path d="M95.14,24.66H98.3v.62H95.85v1.38h2.4v.62h-2.4v1.47H98.3v.62H95.14Z" style="fill:#cc122d"></path><path d="M99.49,27a2.37,2.37,0,0,1,2.42-2.44,2.12,2.12,0,0,1,1.87,1l-.6.32a1.49,1.49,0,0,0-1.27-.69,1.81,1.81,0,0,0,0,3.62,1.49,1.49,0,0,0,1.27-.69l.6.32a2.13,2.13,0,0,1-1.87,1A2.37,2.37,0,0,1,99.49,27Z" style="fill:#cc122d"></path><path d="M105,24.66h.71v4.71H105Z" style="fill:#cc122d"></path><path d="M110.23,28.4h-2.31l-.38,1h-.78l1.87-4.71h.89l1.87,4.71h-.78Zm-2.1-.63H110l-1-2.49Z" style="fill:#cc122d"></path><path d="M112.46,24.66h.71v4.09h2.14v.62h-2.85Z" style="fill:#cc122d"></path><path d="M116.59,24.66h.7v4.71h-.7Z" style="fill:#cc122d"></path><path d="M119,28.17a2,2,0,0,0,1.48.66c.77,0,1-.39,1-.73,0-.49-.53-.63-1.13-.79-.76-.2-1.63-.42-1.63-1.38,0-.77.68-1.34,1.66-1.34a2.3,2.3,0,0,1,1.72.66l-.41.52a1.85,1.85,0,0,0-1.36-.55c-.53,0-.89.27-.89.66s.51.56,1.1.71c.77.2,1.66.45,1.66,1.45,0,.73-.5,1.42-1.78,1.42a2.37,2.37,0,0,1-1.85-.75Z" style="fill:#cc122d"></path><path d="M124.61,25.28h-1.46v-.62h3.63v.62h-1.46v4.09h-.71Z" style="fill:#cc122d"></path><path d="M128.09,28.17a2,2,0,0,0,1.49.66c.76,0,1-.39,1-.73,0-.49-.54-.63-1.14-.79-.76-.2-1.63-.42-1.63-1.38,0-.77.68-1.34,1.67-1.34a2.27,2.27,0,0,1,1.71.66l-.41.52a1.83,1.83,0,0,0-1.36-.55c-.52,0-.88.27-.88.66s.51.56,1.09.71c.77.2,1.67.45,1.67,1.45,0,.73-.51,1.42-1.78,1.42a2.4,2.4,0,0,1-1.86-.75Z" style="fill:#cc122d"></path><path d="M2.53,7.5V18H0V3.59H2.59L10,13.8V3.59h2.53V18H10Z"></path><text transform="translate(30.67 17.99)" style="font-size:21.59600067138672px;fill:#fff;font-family:ProximaNova-Semibold, Proxima Nova;font-weight:600"> </text><path d="M44.94,12.61h-2.5V18H39.91V3.59h6.33a4.37,4.37,0,0,1,4.7,4.51,4,4,0,0,1-3.41,4.23L51.05,18H48.13Zm1-6.8H42.44v4.58h3.45a2.3,2.3,0,1,0,0-4.58Z"></path><path d="M56.69,5.81H52.33V3.59H63.58V5.81H59.21V18H56.69Z"></path><path d="M75.41,11.71H67.92V18H65.39V3.59h2.53V9.48h7.49V3.59h2.53V18H75.41Z"></path><path d="M81.48,14A6.24,6.24,0,0,0,86,16c2.07,0,2.89-1,2.89-2,0-1.3-1.53-1.69-3.28-2.14-2.36-.58-5.12-1.27-5.12-4.32,0-2.37,2.09-4.21,5.25-4.21a7.45,7.45,0,0,1,5.39,2L89.73,7.26a5.87,5.87,0,0,0-4.17-1.64c-1.49,0-2.44.71-2.44,1.79S84.59,8.9,86.3,9.33c2.37.61,5.2,1.34,5.2,4.47,0,2.4-1.69,4.45-5.57,4.45A7.69,7.69,0,0,1,80.08,16Z"></path><path d="M97.16,5.81H92.8V3.59h11.25V5.81H99.68V18H97.16Z"></path><path d="M113.55,15.23h-6.82L105.67,18H102.9l5.66-14.4h3.15L117.37,18h-2.76ZM107.44,13h5.4l-2.7-7.27Z"></path><path d="M124,12.61h-2.51V18h-2.52V3.59h6.32A4.37,4.37,0,0,1,130,8.1a4,4,0,0,1-3.41,4.23L130.07,18h-2.92Zm1-6.8h-3.46v4.58h3.46a2.3,2.3,0,1,0,0-4.58Z"></path><path d="M25.89,3.54h5.05l-5.6,1-1.19,2H35.81L34.62,4.64H28.39L34,3.58l-1-1.68h0a.69.69,0,0,0-.53-.35H27Z" style="fill:#cc122d"></path><path d="M22.08,3.07,20.55,8.29l.89,1.82L27.21.23H25L22.12,5.28l1.52-5H22a.67.67,0,0,0-.59.36h0L18.73,5.15l1,1.78Z" style="fill:#cc122d"></path><path d="M20,14.48l-2.38-4,3.48,4h2.25L17.75,4.51l-1.1,1.91,2.92,5.26L15.93,7.61,15,9.18h0a.67.67,0,0,0,0,.67h0l0,0v0l2.66,4.58Z" style="fill:#cc122d"></path><path d="M25.94,18.08h-4.8l5.43-1.19,1.14-2H16.61l1.1,2h6L18.34,18l.84,1.54h0a.67.67,0,0,0,.59.34h5.15Z" style="fill:#cc122d"></path><path d="M29.92,18.76l1.65-5.47-1.1-2-5.77,10h2.21l3.14-5.55-1.7,5.55h1.72a.69.69,0,0,0,.59-.34h0l2.69-4.79-1-1.78Z" style="fill:#cc122d"></path><path d="M37.36,12.1a.69.69,0,0,0-.09-.34l0,0h0L34.54,7.06H32.29l2.34,4.07L30.77,7.06H28.69l5.89,10,1.11-1.94L32.63,10l3.78,4,.86-1.52h0a.64.64,0,0,0,.09-.34" style="fill:#cc122d"></path></svg>